<svg xmlns="http://www.w3.org/2000/svg" width="331.286" height="366.254"><path d="M144.042 288.75l8.814 31.002h1.824l8.814-31.002L296.618-76.275h39.207L171.092 366.254h-34.648L-28.288-76.275h39.511L144.042 288.75z"/><path fill="#469300" d="M317.086 66.319c-22.504-42.247-74.111-56.589-124.76-37.026-2.762 1.02-5.822 2.34-9.362 4.021 0 0-25.684 1.5-31.085 11.582-9.842 18.243-7.621 42.847.36 42.127 31.986-3.181 32.226-30.305 43.387-39.607 35.046-16.563 81.673-11.642 103.157 28.625 15.482 29.345 14.883 61.39-1.62 92.896-28.625 54.07-96.256 93.136-176.79 102.078-15.603 1.68-26.824 9.541-30.665 21.243-3.661 11.222.24 23.644 10.142 32.766 4.801 4.261 18.183 14.162 42.427 14.162 36.006-4.86 45.967-25.564 45.967-25.564-37.206 15.903-63.91 5.642-74.352-3.841-3.841-3.601-5.641-7.861-4.561-11.041 1.32-3.721 6.241-6.481 13.382-7.262 87.075-9.481 161.067-52.748 192.692-112.879 19.685-37.267 20.285-77.174 1.681-112.28zM169.222 71.54l-.239-2.34c2.1-6.121 5.4-13.802 11.041-15.782.12 5.82-6.781 15.301-10.802 18.122z"/><path d="M218.67 237.701c-.161.078-.268.132-.344.171-.277.282-.26.245-.722.545.187-.142-.048.039-.477.243-.081.038-.17.128-.255.096-.061-.022.183-.179.128-.145-.218.137-.407.314-.622.455-.113.074-.24.124-.359.187-.646.3-.455.235-1.438.492-.049.015-.103 0-.153.009-.097.008-.192.025-.288.034-.529.053-.593.194-.49.009-.311-.015-.052-.02-.635.199-.527.195-.805.293-1.363.415-.086.02-.176 0-.26.025-.214.053-.42.13-.631.196-.654.208-1.042.346-1.73.5-.212.049-.43.07-.645.107-.695.117-1.406.286-2.116.154-1.038-.061-1.968.553-2.997.59-.182.046-.365.081-.545.137-.246.076-1.354.502-1.514.557-.219.074-.441.133-.662.198-.909.271-.531.192-1.158.296-.735.181.043-.025-1.144.396-.224.08-.454.143-.682.216-.265.085-.524.185-.793.257-1.018.275-.728.401-1.142.178-.817.254-1.568.641-2.366.947-.302.116-.613.202-.919.308-1.497.518-.207.105-1.686.562-1.207.292-2.374.717-3.557 1.092-.27.085-.545.15-.814.236-.234.074-.465.162-.699.242-.334.156-.662.325-1.003.468a18.17 18.17 0 0 1-2.218.729c-.235.058-.48.067-.719.108-.266.047-.501.109-.76.176-.219.074-.438.149-.655.225-.033 0-.067-.01-.1.008-.225.076-.438.186-.665.254-.623.188-1.271.234-1.914.293l-14.133 38.754-.377 1.326c1 .068 2.003.035 3.004.02 1.629-.025 1.143-.02 2.924-.028 3.105 0 6.211.014 9.316.011h1.504c.633 0 1.01.006 1.436-.008.143-.039.217-.061.479-.127 1.308-.33 2.648-.473 3.992-.529.357-.031.715-.073 1.072-.098.136-.008 1.954-.076 2.067-.087 1.729-.16 3.433-.533 5.154-.746 2.081-.282 4.172-.501 6.257-.755l18.548-49.826c-.081.055-.135.051-.134-.067v-.005zm-82.18 30.34c-.37.207-.527.258-1.344.41-.164.03-.334 0-.501 0-.59 0-1.179-.02-1.769-.045-.38-.008-.659-.017-1.041.012-.198.015-.394.047-.591.066-.129.014-.26.009-.388.031-.167.031-1.21.313-1.358.353-.292.079-.58.173-.875.236-1.432.31-.625.093-1.889.246-.854.104-1.693.306-2.537.471-.396.056-.789.14-1.188.167-.251.017-.504-.023-.756-.033-1.041-.038-2.081-.054-3.102.197-.514.06-1.032.094-1.544.168-.256.038-.508.098-.763.142-.456.079-.911.103-1.353.244-.372.077-.737.187-1.112.251-.792.135-1.613-.009-2.387.267-.147.028-.293.067-.442.083-.012 0 .012-.041 0-.037-.21.07-.408.176-.619.244-.352.114-.688.097-1.031.235-.301.065-.598.146-.902.196-.042.008.077-.039.107-.067.006-.009-.007-.026-.016-.022-.423.172-.828.402-1.288.476.04-.031.167-.112.12-.093-.23.096-.43.252-.651.368-.392.205-.797.384-1.231.479-.448.065.184-.04-.841.326a9.34 9.34 0 0 1-.929.275c-.849.203-.368-.15-1.245.346-.28.076-.559.158-.841.229l8.949 24.04a4.87 4.87 0 0 1 1.041-.105H135.423c.243 0 .486.025.728 0a.836.836 0 0 0 .189-.044c.5-.349 1.224-.579 2.178-.576.508 0 1.018-.031 1.526-.003l.432-.033c1.189-.096 1.631-.151 2.816-.18.436-.012.872 0 1.308 0 .625.022 1.25.037 1.874.047l-2.501-8.797-7.483-20.57z"/></svg>