<svg xmlns="http://www.w3.org/2000/svg" width="107.87" height="11.957" viewBox="0 0 28.541 3.164"><g aria-label="VITRINE PHARMA" style="line-height:2.03982234px;-inkscape-font-specification:'MostraNuova, Normal';font-variant-ligatures:normal;font-variant-caps:normal;font-variant-numeric:normal;font-feature-settings:normal;text-align:start" font-weight="400" font-size="4.352" font-family="MostraNuova" letter-spacing="0" word-spacing="0" stroke-width=".082"><path d="M2.359.091l-1.18 3.073L0 .09h.318l.861 2.276.862-2.276zM2.802.091h.296v2.981h-.296zM4.545 3.072H4.25V.387h-.644V.091h1.589v.296h-.649zM7.21 3.072h-.396l-.818-.931v.931H5.7V.092h.457q.279 0 .514.139.24.139.378.378.14.235.14.514 0 .239-.105.452-.1.21-.283.357-.182.144-.413.196zM5.996.387v1.471h.161q.2 0 .366-.1.17-.1.27-.265.1-.17.1-.37 0-.2-.1-.366-.1-.17-.27-.27-.166-.1-.366-.1zM7.91.091h.296v2.981H7.91zM9.37 3.072h-.295V.01l1.262 2.102V.09h.295v3.064L9.37 1.062zM11.505.091h1.293v.296H11.8v1.045h.997v.296H11.8v1.048h.997v.296h-1.293zM14.954 2.154v.918h-.295V.092h.456q.279 0 .514.139.24.139.379.378.139.235.139.514 0 .278-.14.518-.139.235-.378.374-.235.14-.514.14zm0-1.767v1.471h.161q.2 0 .366-.1.17-.1.27-.265.1-.17.1-.37 0-.2-.1-.366-.1-.17-.27-.27-.165-.1-.366-.1zM18.084 1.728h-.988v1.344H16.8V.092h.296v1.34h.988V.092h.296v2.98h-.296zM19.3 2.641l-.16.431h-.318L20 0l1.18 3.072h-.318l-.161-.43zm1.306-.243L20 .796l-.605 1.602zM23.138 3.072h-.396l-.818-.931v.931h-.296V.092h.457q.278 0 .513.139.24.139.379.378.14.235.14.514 0 .239-.105.452-.1.21-.283.357-.183.144-.413.196zM21.924.387v1.471h.16q.201 0 .366-.1.17-.1.27-.265.1-.17.1-.37 0-.2-.1-.366-.1-.17-.27-.27-.165-.1-.365-.1zM25.44.905l-.654.884-.652-.884v2.167h-.296V.01l.948 1.288.95-1.288v3.063h-.297zM26.66 2.641l-.16.431h-.318L27.362 0l1.179 3.072h-.318l-.161-.43zm1.306-.243L27.361.796l-.605 1.602z"/></g></svg>